<svg width="20" height="20" viewBox="0 0 20 20" fill="none" xmlns="http://www.w3.org/2000/svg"><path fill-rule="evenodd" clip-rule="evenodd" d="M10.0001 2.26665C5.7291 2.26665 2.26677 5.72898 2.26677 9.99998C2.26677 14.271 5.7291 17.7333 10.0001 17.7333C14.2711 17.7333 17.7334 14.271 17.7334 9.99998C17.7334 5.72898 14.2711 2.26665 10.0001 2.26665ZM1.06677 9.99998C1.06677 5.06624 5.06636 1.06665 10.0001 1.06665C14.9339 1.06665 18.9334 5.06624 18.9334 9.99998C18.9334 14.9337 14.9339 18.9333 10.0001 18.9333C5.06636 18.9333 1.06677 14.9337 1.06677 9.99998ZM10.0001 4.39998C10.3315 4.39998 10.6001 4.66861 10.6001 4.99998V9.62916L13.6018 11.13C13.8982 11.2782 14.0183 11.6386 13.8701 11.935C13.7219 12.2314 13.3615 12.3515 13.0651 12.2033L9.73178 10.5366C9.52851 10.435 9.40011 10.2272 9.40011 9.99998V4.99998C9.40011 4.66861 9.66874 4.39998 10.0001 4.39998Z" fill="#FDF8ED"/></svg>
