<svg width="121" height="33" viewBox="0 0 121 33" fill="none" xmlns="http://www.w3.org/2000/svg">
<g clip-path="url(#clip0_211_2924)">
<path fill-rule="evenodd" clip-rule="evenodd" d="M77.5279 1.2498C71.3961 3.2598 67.6487 8.01872 67.0631 14.5398C66.184 24.3302 71.9811 31.3868 81.5264 32.1446C91.7231 32.9546 97.9755 27.7568 98.6824 17.8841L99.0033 13.3985H90.7631H82.5235V16.9855V20.5724H86.4594C90.1931 20.5724 90.3594 20.6396 89.6974 21.8768C87.1553 26.6265 78.6914 26.2861 76.7414 21.3557C75.0301 17.0292 75.5668 13.0509 78.2192 10.3985C81.0737 7.54393 84.6672 7.32546 87.6392 9.82589L89.5944 11.4713L93.2329 9.86176C95.2337 8.97676 96.8714 8.00111 96.8714 7.69263C96.8714 6.79719 92.8279 3.20828 90.4944 2.03241C87.5531 0.550021 80.8898 0.147629 77.5279 1.2498ZM0.349609 13.3985V25.7898H3.28439H6.21917V28.7246V31.6594H18.6105H31.0018V19.2681V6.87676H27.7409H24.48V3.94198V1.00719H12.4148H0.349609V13.3985ZM47.6263 1.82241C45.9842 6.42806 37.5235 31.2322 37.5235 31.4422C37.5235 31.5942 39.4794 31.632 41.8696 31.5263C46.1981 31.3339 46.2196 31.3235 46.9807 29.0507L47.745 26.7681L53.2846 26.5815L58.8248 26.3944L59.6133 29.0272L60.4018 31.6594H64.6148C66.932 31.6594 68.8337 31.4396 68.8416 31.1702C68.8487 30.9009 66.5779 24.0048 63.795 15.8442L58.7348 1.00719H53.3257C49.5887 1.00719 47.8272 1.25893 47.6263 1.82241ZM98.1757 4.92024V8.83328H101.763H105.35V20.2463V31.6594H109.589H113.828V20.2463V8.83328H117.089H120.35V4.92024V1.00719H109.263H98.1757V4.92024ZM6.87135 16.3333V25.1376H15.3496H23.8279V16.3333V7.52893H15.3496H6.87135V16.3333ZM51.9359 13.0724C51.1624 15.5833 50.372 18.1515 50.1783 18.7789C49.8757 19.7618 50.2853 19.9202 53.132 19.9202C54.9496 19.9202 56.4366 19.6835 56.4366 19.3946C56.4366 19.1057 55.74 16.5374 54.8896 13.6881L53.342 8.50719L51.9359 13.0724Z" fill="#161617"/>
</g>
<defs>
<clipPath id="clip0_211_2924">
<rect width="120" height="31.9565" fill="white" transform="translate(0.349609 0.35498)"/>
</clipPath>
</defs>
</svg>
