<svg width="85" height="43" viewBox="0 0 85 43" fill="none" xmlns="http://www.w3.org/2000/svg">
<g clip-path="url(#clip0_211_3004)">
<path d="M0.349609 0.333008H84.3496V42.333H0.349609V0.333008Z" fill="white"/>
<mask id="mask0_211_3004" style="mask-type:luminance" maskUnits="userSpaceOnUse" x="12" y="11" width="60" height="17">
<path d="M12.3447 11.8076H71.8755V27.9944H12.3447V11.8076Z" fill="white"/>
</mask>
<g mask="url(#mask0_211_3004)">
<path d="M17.8637 21.5346L17.3009 16.9482C17.2757 16.7382 17.1329 16.545 16.9145 16.4694C16.6961 16.3938 16.4693 16.4526 16.3097 16.6038L12.9917 19.821C12.9245 19.8882 12.8657 19.9638 12.8321 20.0646C12.7229 20.3754 12.8825 20.7114 13.1933 20.8122C13.2605 20.8374 13.3193 20.8458 13.3865 20.8458H13.9157L14.4701 20.8374C14.4953 20.8374 14.5121 20.8374 14.5373 20.8458C14.6381 20.8794 14.6885 20.9886 14.6549 21.0894L14.4701 21.6102L12.4121 27.4314H12.8321L15.0161 21.2322C15.0161 21.2238 15.0245 21.2238 15.0245 21.2154C15.1337 20.913 14.9741 20.5686 14.6633 20.4678C14.5961 20.4426 14.5289 20.4342 14.4617 20.4342L13.9409 20.4426H13.6805H13.3865C13.3613 20.4426 13.3445 20.4426 13.3193 20.4342C13.2185 20.4006 13.1681 20.2914 13.2017 20.1906C13.2101 20.157 13.2353 20.1318 13.2605 20.1066L13.6553 19.7286L16.1585 17.2926L16.5869 16.8726C16.6373 16.8222 16.7129 16.8054 16.7801 16.8306C16.8473 16.8558 16.8977 16.9146 16.9061 16.9902L16.9817 17.5782L17.4101 21.0474L17.4773 21.585C17.4857 21.6186 17.4773 21.6522 17.4689 21.6858C17.4353 21.7866 17.3261 21.837 17.2253 21.8034C17.2001 21.795 17.1833 21.7866 17.1665 21.7698L16.9397 21.585L16.7381 21.4254L16.3349 21.0978C16.2845 21.0558 16.2257 21.0222 16.1585 20.997C15.8561 20.8878 15.5117 21.0474 15.4109 21.3582C15.4109 21.3666 15.4109 21.3666 15.4025 21.375L13.2605 27.4398H13.6805L15.5957 22.0134L15.7805 21.4926C15.8141 21.3918 15.9233 21.3414 16.0241 21.375C16.0493 21.3834 16.0661 21.3918 16.0829 21.4086L16.5113 21.7614L16.9229 22.0974C16.9733 22.1394 17.0321 22.173 17.0909 22.1982C17.3933 22.3074 17.7377 22.1478 17.8385 21.837C17.8721 21.7278 17.8805 21.627 17.8637 21.5346Z" fill="#161617"/>
</g>
<mask id="mask1_211_3004" style="mask-type:luminance" maskUnits="userSpaceOnUse" x="12" y="11" width="60" height="17">
<path d="M12.3447 11.8076H71.8755V27.9944H12.3447V11.8076Z" fill="white"/>
</mask>
<g mask="url(#mask1_211_3004)">
<path d="M30.0684 27.44H34.5708L39.8124 12.6812H35.2932L30.0684 27.44Z" fill="#161617"/>
</g>
<mask id="mask2_211_3004" style="mask-type:luminance" maskUnits="userSpaceOnUse" x="12" y="11" width="60" height="17">
<path d="M12.3447 11.8076H71.8755V27.9944H12.3447V11.8076Z" fill="white"/>
</mask>
<g mask="url(#mask2_211_3004)">
<path d="M48.0869 27.4398H52.5473L54.8741 20.9382C55.8065 19.3758 57.6713 19.7286 57.3269 21.0978L55.0925 27.4398H59.7545L61.9637 21.2406C62.5517 19.6866 64.9961 19.5858 64.4585 21.4254L62.3837 27.4398H66.8861L69.4061 20.3082C70.2461 17.8806 67.2809 14.6382 62.1821 18.2082C61.5773 16.5786 59.0657 15.5538 55.7057 17.931L55.9325 16.965H51.7493L48.0869 27.4398Z" fill="#161617"/>
</g>
<mask id="mask3_211_3004" style="mask-type:luminance" maskUnits="userSpaceOnUse" x="12" y="11" width="60" height="17">
<path d="M12.3447 11.8076H71.8755V27.9944H12.3447V11.8076Z" fill="white"/>
</mask>
<g mask="url(#mask3_211_3004)">
<path d="M69.4817 12.8745C69.6161 12.4125 70.0445 12.0681 70.5569 12.0681C71.1701 12.0681 71.6741 12.5721 71.6741 13.1853C71.6741 13.8069 71.1701 14.3025 70.5569 14.3025C69.9353 14.3025 69.4313 13.8069 69.4313 13.1853C69.4229 13.0761 69.4397 12.9753 69.4817 12.8745L69.3557 12.8157C69.3221 12.9333 69.2969 13.0593 69.2969 13.1853C69.2969 13.8825 69.8513 14.4453 70.5569 14.4453C71.2457 14.4453 71.8169 13.8825 71.8169 13.1853C71.8169 12.4965 71.2457 11.9253 70.5569 11.9253C69.9857 11.9253 69.5153 12.2949 69.3557 12.8157L69.4817 12.8745Z" fill="#161617"/>
</g>
<mask id="mask4_211_3004" style="mask-type:luminance" maskUnits="userSpaceOnUse" x="12" y="11" width="60" height="17">
<path d="M12.4121 11.9336H71.8085V27.8852H12.4121V11.9336Z" fill="white"/>
</mask>
<g mask="url(#mask4_211_3004)">
<path d="M70.3297 13.1599H70.2877V12.7819H70.8085C71.0437 12.8491 70.9429 13.1599 70.7665 13.1599H70.3297V13.2943H70.6405C71.0269 13.3447 70.8337 13.7059 70.9261 13.8151H71.0605C70.9597 13.6723 71.1361 13.3951 70.8841 13.2691C71.2201 13.1179 71.0773 12.6475 70.7665 12.6559H70.1533V13.8151H70.2709V13.3027H70.3297V13.1599Z" fill="#161617"/>
</g>
<mask id="mask5_211_3004" style="mask-type:luminance" maskUnits="userSpaceOnUse" x="12" y="11" width="60" height="17">
<path d="M12.4121 11.9336H71.8085V27.8852H12.4121V11.9336Z" fill="white"/>
</mask>
<g mask="url(#mask5_211_3004)">
<path d="M43.5088 16.9482H39.2836L36.7972 23.9202C35.554 27.8598 39.5188 29.1618 43.2904 26.4402L43.0384 27.4398H47.062L50.7748 16.965H46.4656L44.2648 22.9458C43.7524 24.4074 40.888 25.2306 41.3248 22.9878L43.5088 16.9482Z" fill="#161617"/>
</g>
<mask id="mask6_211_3004" style="mask-type:luminance" maskUnits="userSpaceOnUse" x="12" y="11" width="60" height="17">
<path d="M12.4121 11.9336H71.8085V27.8852H12.4121V11.9336Z" fill="white"/>
</mask>
<g mask="url(#mask6_211_3004)">
<path d="M24.8273 17.5026L26.5073 12.6558H21.9881L16.7969 27.4314H21.0389L21.5261 26.2638C21.7865 28.0362 27.6329 29.523 30.7493 23.2314C33.1937 18.6954 30.3965 14.193 24.8273 17.5026ZM26.3645 23.1222C25.5245 24.1554 24.1805 24.6762 23.4077 24.1638C22.5677 23.601 22.6181 22.3242 23.4581 21.1146C23.6597 20.8122 23.8781 20.5518 24.1133 20.3418C24.9029 19.5942 25.8101 19.3506 26.5409 19.8294C27.3893 20.3922 27.2465 22.0218 26.3645 23.1222Z" fill="#161617"/>
</g>
</g>
<defs>
<clipPath id="clip0_211_3004">
<rect width="84" height="42" fill="white" transform="translate(0.349609 0.333008)"/>
</clipPath>
</defs>
</svg>
