<svg width="98" height="23" viewBox="0 0 98 23" fill="none" xmlns="http://www.w3.org/2000/svg">
<g clip-path="url(#clip0_211_2884)">
<path d="M21.7969 0.332756H96.2845V7.88281H21.7969V0.332756Z" fill="#161617"/>
<path d="M21.7969 15.6016V22.5947H35.06C35.06 22.5947 35.064 21.2436 35.064 21.1054C35.064 20.9702 34.9773 20.9168 34.8706 20.9141C34.7665 20.9102 26.1823 20.9141 26.1823 20.9141L26.185 18.4125H33.7156C33.7156 18.4125 33.7156 17.0694 33.7156 16.9448C33.7156 16.8186 33.6462 16.7493 33.5208 16.7493C33.3968 16.7493 26.185 16.7493 26.185 16.7493V14.1919H35.06C35.06 14.1919 35.06 12.8386 35.06 12.7039C35.06 12.5686 34.9733 12.5286 34.8666 12.5286C34.7626 12.5286 24.8499 12.5286 24.8499 12.5286C23.1573 12.5286 21.7969 13.9051 21.7969 15.6016Z" fill="#161617"/>
<path d="M39.9148 12.5286C39.9148 12.5286 49.9187 12.5286 50.0441 12.5286C50.1697 12.5286 50.2418 12.5772 50.2418 12.7047C50.2418 12.83 50.2418 14.1892 50.2418 14.1892H41.2353V20.7568H48.5057V18.412H44.0095C44.0095 18.412 44.0095 17.0462 44.0095 16.9427C44.0095 16.8421 44.0816 16.7527 44.2123 16.7527C45.338 16.7527 49.951 16.7501 50.0431 16.7501C50.1455 16.7501 50.2418 16.8381 50.2418 16.9448C50.2418 17.0515 50.2418 22.5947 50.2418 22.5947H36.8564V15.6016C36.8564 13.9051 38.2262 12.5286 39.9148 12.5286Z" fill="#161617"/>
<path d="M55.3289 12.5286C55.3289 12.5286 65.332 12.5286 65.459 12.5286C65.5827 12.5286 65.655 12.5772 65.655 12.7047C65.655 12.83 65.655 14.1892 65.655 14.1892H56.6503L56.6493 20.7568H63.9198V18.412H59.4246C59.4246 18.412 59.4273 17.0467 59.4273 16.9448C59.4273 16.8434 59.4956 16.7527 59.6247 16.7527C60.752 16.7527 65.3656 16.7501 65.4573 16.7501C65.559 16.7501 65.655 16.8381 65.655 16.9448C65.655 17.0507 65.655 22.5947 65.655 22.5947H52.2705V15.6009C52.2705 13.9038 53.64 12.5286 55.3289 12.5286Z" fill="#161617"/>
<path d="M67.6963 15.6016V22.5947H80.9634C80.9634 22.5947 80.9634 21.2422 80.9634 21.1054C80.9634 20.9702 80.8766 20.9168 80.7701 20.9141C80.6663 20.9102 72.0802 20.9141 72.0802 20.9141L72.083 18.412H79.614C79.614 18.412 79.614 17.0694 79.614 16.9448C79.614 16.8186 79.5457 16.7487 79.4207 16.7487C79.2964 16.7487 72.083 16.7487 72.083 16.7487V14.1919H80.9599C80.9599 14.1919 80.9599 12.8386 80.9599 12.7034C80.9599 12.5686 80.8732 12.5286 80.766 12.5286C80.6622 12.5286 70.7479 12.5286 70.7479 12.5286C69.0563 12.5286 67.6963 13.9051 67.6963 15.6016Z" fill="#161617"/>
<path d="M0.349609 12.5286H14.9586V14.4066H7.19997V16.6033H14.9586V18.5413H7.23459V20.7247H14.9586V22.5947L0.349609 22.5939V12.5286Z" fill="#161617"/>
<path fill-rule="evenodd" clip-rule="evenodd" d="M93.6398 12.5291C95.0991 12.5291 96.2819 14.0037 96.2819 15.4701C96.2819 16.9367 95.0923 18.4119 93.6302 18.4119H92.4393L96.9477 22.2377C96.9477 22.2377 97.3944 22.5946 96.9225 22.5946C96.6712 22.5946 93.002 22.5946 92.1299 22.5946C91.9312 22.5986 91.8376 22.4786 91.6362 22.3159C91.7953 22.4239 87.127 18.4119 87.127 18.4119V22.5946H82.751V15.6015C82.751 13.905 84.1127 12.5291 85.8008 12.5291H93.6398ZM93.0395 16.758C93.5066 16.758 94.1718 16.2746 94.1718 15.4749C94.1718 14.5892 93.5462 14.1963 93.0395 14.1963H87.127V16.7585L93.0395 16.7539V16.758Z" fill="#161617"/>
</g>
<defs>
<clipPath id="clip0_211_2884">
<rect width="97" height="22" fill="white" transform="translate(0.349609 0.333008)"/>
</clipPath>
</defs>
</svg>
