<svg width="68" height="43" viewBox="0 0 68 43" fill="none" xmlns="http://www.w3.org/2000/svg">
<g clip-path="url(#clip0_211_2938)">
<path fill-rule="evenodd" clip-rule="evenodd" d="M51.0904 5.73841L41.8021 11.1234L41.6979 12.8959L41.594 14.6684L42.3747 14.1747C42.8044 13.9029 47.0768 11.4121 51.869 8.63971L60.5824 3.59847V1.97592C60.5824 1.08326 60.5367 0.353027 60.4806 0.353027C60.4247 0.353027 56.199 2.77653 51.0904 5.73841ZM50.859 10.4254L41.6434 15.7495L41.638 17.393C41.6343 18.5757 41.7517 18.9882 42.0559 18.8643C42.2887 18.7696 46.5141 16.3481 51.446 13.4837L60.4132 8.27527L60.5164 6.68284C60.5729 5.8071 60.4968 5.09277 60.3472 5.09582C60.1973 5.09886 55.9276 7.49733 50.859 10.4254ZM51.0904 14.8748L41.8021 20.2598L41.6979 22.0323L41.594 23.8047L42.3747 23.311C42.8044 23.0393 47.0768 20.5485 51.869 17.7761L60.5824 12.7348V11.1123C60.5824 10.2196 60.5367 9.48939 60.4806 9.48939C60.4247 9.48939 56.199 11.9129 51.0904 14.8748ZM50.859 19.5617L41.6434 24.8859L41.638 26.5294C41.6343 27.712 41.7517 28.1245 42.0559 28.0007C42.2887 27.9059 46.5141 25.4845 51.446 22.62L60.4132 17.4116L60.5164 15.8192C60.5729 14.9435 60.4968 14.2291 60.3472 14.2322C60.1973 14.2352 55.9276 16.6337 50.859 19.5617ZM27.5054 23.9299C26.0696 24.7661 26.0673 24.7705 26.0673 26.7723V28.7773H24.8829C23.7811 28.7773 23.6986 28.8514 23.6986 29.8381V30.8989L23.0333 30.053C22.0672 28.825 20.5997 28.3316 18.4445 28.5103C15.2451 28.7756 13.7525 30.8996 13.8239 35.0858C13.9034 39.7561 16.1861 42.3126 20.2758 42.3126C23.3497 42.3126 24.037 41.9431 24.037 40.2908C24.037 38.7836 24.0461 38.789 22.2767 39.2804C19.9889 39.9158 17.9102 38.496 17.4013 35.9503L17.1847 34.8682H20.7641H24.3435L24.1432 33.1763L23.9426 31.4843H25.0051H26.0673V35.5619C26.0673 41.3875 26.8428 42.4747 30.8371 42.2477L32.6657 42.1434L32.772 40.6586L32.8783 39.1738L31.8546 39.3785C30.1086 39.7277 29.7895 39.0533 29.7895 35.0133V31.4843H31.7799H33.7702L33.9083 35.9233L34.0467 40.3622L35.138 41.3374C36.0553 42.157 36.521 42.3126 38.0576 42.3126C40.6682 42.3126 40.9562 42.1367 40.9562 40.5402C40.9562 39.186 40.9501 39.1795 39.8273 39.3619C37.9198 39.6712 37.754 39.3589 37.6271 35.2194L37.5124 31.4843H39.4036H41.2945V30.1308V28.7773H39.4334H37.5723V25.901C37.5723 24.3191 37.4887 23.0247 37.3862 23.0247C37.0336 23.0247 35.0327 24.1228 34.4423 24.6409C34.0169 25.0138 33.8501 25.6696 33.8501 26.9686V28.7773H31.8198H29.7895V25.901C29.7895 22.661 29.7472 22.6244 27.5054 23.9299ZM58.4675 23.893L56.8602 24.7295V33.3519V41.9742H58.7213H60.5824V38.6327C60.5824 36.7949 60.6772 34.8174 60.7929 34.2384C61.0612 32.8968 62.3975 31.4231 63.101 31.6931C63.5453 31.8633 63.6279 32.6873 63.6279 36.9516V42.0081L65.5736 41.9066L67.5193 41.805L67.5406 33.0071C67.5541 27.3963 67.4861 25.4963 67.3531 27.7621C67.2381 29.7163 67.1142 31.0624 67.078 30.7531C66.9721 29.8557 65.041 28.4389 63.9236 28.4389C62.7819 28.4389 61.0677 29.2263 60.8088 29.8699C60.7137 30.1064 60.6237 28.6629 60.6091 26.6624C60.5946 24.6618 60.468 23.0318 60.3286 23.0406C60.1892 23.0491 59.3517 23.4328 58.4675 23.893ZM0.688477 33.3455V41.9742H2.3804H4.07231V38.4212V34.8682H6.77939H9.48646V38.4212V41.9742H11.3476H13.2087V33.3455V24.7167H11.3476H9.48646V28.2697V31.8227H6.77939H4.07231V28.2697V24.7167H2.3804H0.688477V33.3455ZM48.3844 29.2013C46.8237 30.253 45.9987 31.8153 45.7927 34.1088C45.5676 36.6169 46.1273 38.6286 47.4788 40.1679C48.8713 41.7536 50.2749 42.3207 52.7042 42.2788C55.8031 42.2253 56.3357 41.9807 56.4558 40.5547L56.5587 39.3315L54.527 39.3782C51.2559 39.4533 49.6269 37.7607 49.6151 34.2733C49.6046 31.1131 51.7838 30.03 52.6158 32.782C52.9261 33.8087 53.0134 33.853 54.7307 33.853C56.4216 33.853 56.5218 33.805 56.5218 32.9962C56.5218 31.5422 55.6007 29.8398 54.4272 29.1245C52.8253 28.1475 49.8925 28.1851 48.3844 29.2013ZM41.6329 35.3758V41.9742H43.494H45.3551V35.3758V28.7773H43.494H41.6329V35.3758ZM17.7376 31.7381C17.1701 32.3026 17.2182 32.335 18.7649 32.4349C20.6112 32.554 20.9306 32.3956 20.3215 31.6617C19.7483 30.971 18.4709 31.0086 17.7376 31.7381Z" fill="#161617"/>
</g>
<defs>
<clipPath id="clip0_211_2938">
<rect width="67" height="41.9596" fill="white" transform="translate(0.349609 0.353027)"/>
</clipPath>
</defs>
</svg>
