<svg width="119" height="31" viewBox="0 0 119 31" fill="none" xmlns="http://www.w3.org/2000/svg">
<path d="M90.5819 6.19399C62.3372 9.03101 30.766 11.9685 4.66786 7.09782C3.4251 6.87186 2.73467 5.34037 2.15723 5.23995C28.1423 10.098 59.7136 7.12293 87.8453 4.29846C88.9123 4.18548 90.2179 6.23165 90.5819 6.18144V6.19399Z" fill="#161617"/>
<path d="M28.5186 27.2711C56.7632 24.4341 88.3345 21.4841 114.42 26.3547C115.675 26.6058 116.366 28.1121 116.943 28.2251C90.9456 23.367 59.3869 26.3421 31.2552 29.1666C30.1881 29.267 28.8826 27.2334 28.5186 27.2836V27.2711Z" fill="#161617"/>
<path d="M33.3272 20.3794H17.46V1.39893H23.4353V16.8142H33.3272V20.3794ZM39.5285 18.9734C39.2774 19.0613 39.0389 19.0989 38.8004 19.0989C38.3736 19.0989 38.0472 19.0487 37.8212 18.9232C37.6078 18.7976 37.4949 18.5717 37.4949 18.2453C37.4877 18.0459 37.5599 17.8517 37.6957 17.7055C37.8212 17.58 38.0095 17.467 38.248 17.4042C38.5242 17.3289 38.8004 17.2787 39.0891 17.2411L40.2189 17.1406V18.6094C40.0125 18.7743 39.7789 18.9017 39.5285 18.9859V18.9734ZM40.2063 20.4547H42.968V15.6594C42.968 14.8308 42.6166 14.2157 41.9261 13.814C40.8888 13.3406 39.7497 13.1335 38.6121 13.2115C37.5571 13.2275 36.5062 13.3452 35.4738 13.563V15.2576H35.6997C36.114 15.107 36.5283 14.9815 36.9551 14.8811C37.8587 14.6646 38.8038 14.6949 39.6917 14.9689C40.0431 15.1196 40.2189 15.3832 40.2189 15.7849V15.8225C39.428 15.8602 38.7 15.923 38.0095 15.9983C37.3191 16.0736 36.7291 16.2117 36.2395 16.4C35.8022 16.5516 35.4126 16.8157 35.1097 17.1657C34.8587 17.4921 34.7332 17.9189 34.7332 18.4336C34.7332 19.0738 34.9842 19.6011 35.4863 20.0153C36.001 20.4296 36.6412 20.643 37.4195 20.643C38.2199 20.6521 39.0083 20.4485 39.7042 20.053L40.2063 19.714V20.4672V20.4547ZM55.4961 20.4547V16.9398L55.4836 16.0611C55.4761 15.8519 55.4248 15.6466 55.3329 15.4585C55.2528 15.311 55.1242 15.1957 54.9689 15.1321C54.7475 15.0541 54.5129 15.02 54.2785 15.0317C54.0776 15.0317 53.8642 15.0694 53.6508 15.1447C53.4625 15.22 53.2366 15.3204 52.998 15.4585V20.4547H50.2363V16.9398C50.2363 16.5883 50.2363 16.2996 50.2112 16.0611C50.1987 15.81 50.1485 15.6217 50.0732 15.4585C49.9899 15.3088 49.8566 15.1932 49.6966 15.1321C49.4792 15.0551 49.249 15.021 49.0187 15.0317C48.7927 15.0317 48.5793 15.0694 48.3659 15.1572C48.1525 15.2451 47.9391 15.3455 47.7383 15.4585V20.4547H44.9766V13.4249H47.7383V14.1781C48.1902 13.8768 48.617 13.6383 49.0061 13.4751C49.4078 13.2994 49.8472 13.2115 50.3493 13.2115C50.8766 13.2115 51.3536 13.3119 51.7553 13.5253C52.1695 13.7262 52.4708 14.0274 52.6968 14.4291C53.224 14.0525 53.7136 13.7387 54.178 13.5253C54.9636 13.1533 55.8615 13.095 56.6887 13.3621C57.0015 13.4595 57.2882 13.6264 57.5273 13.8504C57.7664 14.0743 57.9518 14.3494 58.0695 14.6551C58.1951 14.9564 58.2578 15.3706 58.2578 15.8728V20.4547H55.4961ZM64.8106 18.9734C64.5595 19.0613 64.3085 19.0989 64.0825 19.0989C63.6557 19.0989 63.3293 19.0487 63.1034 18.9232C62.89 18.7976 62.777 18.5717 62.777 18.2453C62.7698 18.0459 62.842 17.8517 62.9778 17.7055C63.1034 17.58 63.2917 17.467 63.5302 17.4042C63.8063 17.3289 64.0825 17.2787 64.3712 17.2411L65.4885 17.1406V18.6094C65.2859 18.773 65.0566 18.9004 64.8106 18.9859V18.9734ZM65.4885 20.4547H68.2502V15.6594C68.2502 14.8308 67.8987 14.2157 67.2083 13.814C66.1709 13.3406 65.0318 13.1335 63.8942 13.2115C62.8393 13.2285 61.7884 13.3462 60.7559 13.563V15.2576H60.9819C61.3836 15.107 61.8104 14.9815 62.2372 14.8811C63.1408 14.6646 64.0859 14.6949 64.9738 14.9689C65.3253 15.1196 65.501 15.3832 65.501 15.7849V15.8225C64.7102 15.8602 63.9695 15.923 63.2917 15.9983C62.6012 16.0736 62.0112 16.2117 61.5091 16.4C61.0195 16.5883 60.6555 16.8394 60.3793 17.1657C60.1283 17.4921 60.0027 17.9189 60.0027 18.4336C60.0027 19.0738 60.2538 19.6011 60.7685 20.0153C61.2706 20.4296 61.9234 20.643 62.7017 20.643C63.1159 20.643 63.4423 20.6179 63.6683 20.5676C64.1317 20.4658 64.5765 20.2921 64.9863 20.053L65.4885 19.714V20.4672V20.4547ZM76.1712 15.4836H75.9327C75.5662 15.4356 75.1975 15.4062 74.828 15.3957C74.2114 15.4466 73.6015 15.5602 73.0078 15.7347V20.4547H70.2712V13.4249H73.0329V14.4291C73.3899 14.172 73.7678 13.9452 74.1627 13.7513C74.6956 13.4862 75.2884 13.3651 75.8825 13.3998L76.1712 13.4249V15.4836ZM81.0544 20.6053C79.9246 20.6053 79.1212 20.417 78.6066 20.053C78.1044 19.6764 77.8534 19.0738 77.8534 18.2453V14.9438H76.7863V13.4123H77.8408V11.4038H80.6025V13.4123H83.2261V14.9438H80.59V17.4545L80.6025 18.0947C80.6025 18.283 80.6527 18.4462 80.728 18.5968C80.8034 18.7349 80.9289 18.8479 81.1046 18.9357C81.3055 19.0236 81.5691 19.0613 81.9206 19.0613C82.0712 19.0613 82.2595 19.0487 82.498 18.9985L83.0002 18.873H83.2261V20.4045C82.5095 20.5347 81.7828 20.6019 81.0544 20.6053ZM93.2436 13.4123L85.7744 29.7315L83.0378 29.8947L87.4314 20.4798L83.9417 13.4123H86.8289L88.6742 17.8185L90.4065 13.4249H93.2436V13.4123Z" fill="#161617"/>
</svg>
