<svg width="96" height="33" viewBox="0 0 96 33" fill="none" xmlns="http://www.w3.org/2000/svg">
<g clip-path="url(#clip0_211_2914)">
<path fill-rule="evenodd" clip-rule="evenodd" d="M27.803 28.0874L14.1166 32.1128V23.9814L27.803 28.0874ZM0.510626 4.25687L14.1971 8.3628V0.231445L0.510626 4.25687ZM0.349609 12.6297V18.5874L27.8835 26.8797V20.9221L0.349609 12.6297ZM27.8835 19.634L0.349609 11.4221V5.38399L27.8835 13.6764V19.634ZM31.4259 23.0153L34.8877 22.5323C35.0488 23.1764 35.3708 23.7399 35.7733 24.062C36.2564 24.384 36.9005 24.545 37.7055 24.545C38.5911 24.545 39.3157 24.384 39.7183 24.062C40.0403 23.8204 40.2013 23.4984 40.2013 23.1764C40.2013 22.9348 40.1208 22.6933 39.9598 22.5323C39.7988 22.3713 39.3962 22.2103 38.8327 22.0492C36.0149 21.4052 34.2437 20.9221 33.5191 20.3586C32.4725 19.634 31.9894 18.6679 31.9894 17.4603C31.9894 16.3331 32.4725 15.4475 33.3581 14.6425C34.2437 13.9179 35.6928 13.5153 37.5445 13.5153C39.3157 13.5153 40.6844 13.8374 41.57 14.4009C42.4555 14.9645 43.0191 15.8501 43.3411 16.9772L40.0403 17.5408C39.8793 17.0577 39.6377 16.6552 39.2352 16.4136C38.8327 16.1721 38.2691 16.0111 37.5445 16.0111C36.6589 16.0111 35.9344 16.1721 35.5318 16.4136C35.2903 16.5747 35.1293 16.8162 35.1293 17.1382C35.1293 17.3797 35.2098 17.6213 35.4513 17.7823C35.7733 18.0238 36.8199 18.3459 38.6716 18.7484C40.5233 19.1509 41.8115 19.634 42.5361 20.2781C43.2606 20.9221 43.6632 21.7272 43.6632 22.7738C43.6632 23.9814 43.1801 24.9475 42.1335 25.8331C41.0869 26.7187 39.6377 27.1213 37.625 27.1213C35.8538 27.1213 34.4047 26.7992 33.3581 26.0747C32.4725 25.2696 31.7479 24.3035 31.4259 23.0153ZM44.9513 26.7187H48.4132V8.92636H44.9513V26.7187ZM49.3793 20.117C49.3793 21.5662 49.7013 22.8543 50.2649 23.9009C50.8284 24.9475 51.6335 25.7526 52.7606 26.2357C53.8877 26.7992 55.0149 27.0408 56.2225 27.0408C58.1547 27.0408 59.7649 26.3967 61.053 25.1086C62.3411 23.8204 62.9852 22.2103 62.9852 20.2781C62.9852 18.3458 62.3411 16.7357 61.053 15.4475C59.7649 14.1594 58.1547 13.5153 56.142 13.5153C54.8539 13.5153 53.6462 13.7569 52.5996 14.3204C51.553 14.884 50.7479 15.6891 50.1844 16.7357C49.7013 17.8628 49.3793 18.9899 49.3793 20.117ZM53.0022 20.2781C53.0022 21.5662 53.3242 22.5323 53.9683 23.1764C54.6123 23.8204 55.3369 24.223 56.303 24.223C57.1886 24.223 57.9937 23.9009 58.5572 23.1764C59.2013 22.5323 59.5233 21.4857 59.5233 20.1975C59.5233 18.9094 59.2013 17.9433 58.5572 17.2992C57.9132 16.6552 57.1886 16.2526 56.303 16.2526C55.4174 16.2526 54.6123 16.5747 53.9683 17.2992C53.2437 18.0238 53.0022 18.9899 53.0022 20.2781ZM69.9089 13.8374V16.5747H67.4937V21.7272C67.4937 22.7738 67.4937 23.4179 67.5742 23.5789C67.6547 23.7399 67.7352 23.9009 67.8962 23.9814C68.0572 24.062 68.2183 24.1425 68.4598 24.1425C68.7818 24.1425 69.2649 24.062 69.8284 23.8204L70.1505 26.4772C69.3454 26.7992 68.4598 26.9603 67.4132 26.9603C66.7691 26.9603 66.2055 26.8797 65.7225 26.6382C65.2394 26.3967 64.8369 26.1552 64.5954 25.8331C64.3539 25.5111 64.1928 25.0281 64.1123 24.4645C64.0318 24.062 64.0318 23.2569 64.0318 22.0492V16.4136H62.4216V13.6764H64.0318V11.1001L67.4937 9.08738V13.5959H69.9089V13.8374ZM78.7649 22.6128C78.6039 23.2569 78.2818 23.7399 77.9598 23.9814C77.5572 24.3035 77.1547 24.384 76.5911 24.384C75.786 24.384 75.142 24.1425 74.5784 23.5789C74.0149 23.0153 73.7733 22.2103 73.7733 21.2442H82.5488C82.6293 18.6679 82.0657 16.7357 80.9386 15.4475C79.8115 14.1594 78.2818 13.5153 76.2691 13.5153C74.4979 13.5153 73.0488 14.0789 71.9216 15.367C70.7945 16.5747 70.231 18.2653 70.231 20.3586C70.231 22.1297 70.6335 23.6594 71.5191 24.7865C72.6462 26.2357 74.3369 26.9603 76.5911 26.9603C78.0403 26.9603 79.2479 26.6382 80.214 25.9942C81.1801 25.3501 81.9047 24.384 82.3072 23.1764L78.7649 22.6128ZM78.9259 19.1509C78.9259 18.1848 78.6038 17.3797 78.1208 16.8967C77.6377 16.4136 76.9937 16.0916 76.2691 16.0916C75.5445 16.0916 74.9005 16.3331 74.4174 16.8967C73.9344 17.4603 73.6928 18.1848 73.6928 19.0704H78.9259V19.1509ZM81.0996 26.7187L85.8496 20.117L81.2606 13.8374H85.5276L87.8623 17.3797L90.3581 13.8374H94.464L90.0361 19.956L94.9471 26.7187H90.6801L88.0233 22.6933L85.286 26.7187H81.0996Z" fill="#161617"/>
</g>
<defs>
<clipPath id="clip0_211_2914">
<rect width="95" height="32.2034" fill="white" transform="translate(0.349609 0.231445)"/>
</clipPath>
</defs>
</svg>
