<svg width="111" height="25" viewBox="0 0 111 25" fill="none" xmlns="http://www.w3.org/2000/svg">
<path d="M11.1057 2.30283C6.00457 4.01367 2.8475 7.09318 0.803711 10.9385C1.80068 5.41493 5.12391 2.07472 10.4411 0.591994C10.574 0.559406 10.6903 0.526819 10.8233 0.510525C12.784 0.168358 13.3821 0.738637 12.3021 1.65108C11.9532 1.94437 11.5377 2.15619 11.1057 2.30283Z" fill="url(#paint0_linear_217_1506)"/>
<path d="M2.73081 19.3966C1.05257 17.0177 0.687017 14.4433 2.19909 11.5757C3.19606 9.81593 4.44227 8.33321 5.97096 7.16006C7.08424 6.2965 8.34707 5.66104 9.69298 5.18853C14.1295 3.62433 15.9739 2.01126 14.5283 0.333008C16.2065 0.447064 17.5026 0.935874 17.3696 2.71189C16.6385 5.62846 14.063 7.46964 10.4739 8.75684C9.44374 9.1316 8.44677 9.58782 7.51626 10.1907C3.9604 12.4555 2.26555 15.4861 2.73081 19.3966Z" fill="url(#paint1_linear_217_1506)"/>
<path d="M14.4951 14.0678C9.3939 16.3164 6.15375 18.0109 6.96794 23.0294C3.04652 20.1128 4.39243 14.2308 9.22774 11.7215C17.3697 8.02287 20.5932 4.51973 18.7488 1.63574C22.4708 4.73154 22.4874 7.9414 18.7986 11.2816C17.5358 12.4548 16.0736 13.3835 14.4951 14.0678Z" fill="url(#paint2_linear_217_1506)"/>
<path d="M19.2302 18.0103C13.4312 22.3444 10.3738 21.5623 11.3708 24.3322C5.40557 23.0288 9.26051 19.0205 15.0097 16.1039C16.5384 15.3218 18.0172 14.5397 19.3798 13.5132C23.5504 10.4011 23.3012 6.42548 22.2377 4.60059C26.425 8.6903 24.2981 14.0509 19.2302 18.0103Z" fill="url(#paint3_linear_217_1506)"/>
<path d="M15.0939 22.2636C20.1951 20.5527 23.3522 17.4732 25.396 13.6279C24.399 19.1352 21.0758 22.4917 15.7586 23.9744C15.6257 24.007 15.5093 24.0396 15.3764 24.0559C13.4157 24.3981 12.8175 23.8278 13.8976 22.9153C14.2465 22.6383 14.6619 22.4102 15.0939 22.2636Z" fill="url(#paint4_linear_217_1506)"/>
<path d="M37.9214 6.47372C39.1547 7.08047 39.3174 8.21482 39.1954 8.88752C38.965 10.2989 37.9892 11.1562 35.9833 11.1562H32.2969V2.3584H35.9291C37.6504 2.3584 38.9108 3.36085 38.8701 5.036C38.843 5.44489 38.5855 6.14397 37.9214 6.47372ZM35.9291 5.80103C37.0405 5.80103 37.0811 4.2314 35.9291 4.2314H34.6009V5.80103H35.9291ZM35.9291 9.20408C37.3115 9.20408 37.2844 7.39703 35.9291 7.39703H34.6009V9.20408H35.9291Z" fill="white"/>
<path d="M42.5287 8.21482C42.5287 9.62617 45.1038 9.62617 45.1173 8.21482V2.3584H47.4349V8.21482C47.4214 12.3433 40.2111 12.3433 40.2246 8.21482V2.3584H42.5287V8.21482Z" fill="white"/>
<path d="M49.7942 8.37317C50.7022 9.44157 52.6945 9.49433 52.7623 8.54464C52.7894 8.04342 51.9627 7.76642 51.2172 7.6609C49.7671 7.43667 48.4389 6.53974 48.4389 4.86459C48.4389 3.13668 50.0517 2.22656 51.7052 2.22656C52.803 2.22656 53.8601 2.52994 54.7953 3.62472L53.3044 4.74588C52.3557 3.76981 50.7429 3.79619 50.7022 4.82502C50.7293 5.2471 51.2037 5.49772 51.9085 5.64281C53.5213 5.93299 55.1205 6.47379 55.0257 8.63697C54.9444 10.3385 53.1147 11.275 51.4476 11.275C50.3634 11.275 49.2114 10.7342 48.3711 9.67899L49.7942 8.37317Z" fill="white"/>
<path d="M58.2651 11.1562H55.9746V2.3584H58.2651V11.1562Z" fill="white"/>
<path d="M59.7012 2.3584H61.8697L64.0517 6.1044L64.8242 7.87188L64.892 7.85869C64.8784 7.85869 64.648 6.34182 64.6345 6.34182V2.3584H66.9114V11.1562H64.5938L62.5473 7.68722L61.7612 5.91974L61.6935 5.93293L61.9916 7.63446V11.1562H59.7012V2.3584Z" fill="white"/>
<path d="M70.638 5.81422H74.2974V7.73998H70.638V9.05899H74.6226V11.1562H68.334V2.3584H74.6226V4.44244H70.638V5.81422Z" fill="white"/>
<path d="M76.8459 8.37317C77.754 9.44157 79.7463 9.49433 79.814 8.54464C79.8411 8.04342 79.0144 7.76642 78.269 7.6609C76.8188 7.43667 75.4906 6.53974 75.4906 4.86459C75.4906 3.13668 77.1034 2.22656 78.7569 2.22656C79.8547 2.22656 80.9118 2.52994 81.847 3.62472L80.3562 4.74588C79.4074 3.76981 77.7946 3.79619 77.754 4.82502C77.7811 5.2471 78.2554 5.49772 78.9602 5.64281C80.573 5.93299 82.1723 6.47379 82.0774 8.63697C81.9961 10.3385 80.1664 11.275 78.4994 11.275C77.4152 11.275 76.2631 10.7342 75.4229 9.67899L76.8459 8.37317Z" fill="white"/>
<path d="M84.0549 8.37317C84.963 9.44157 86.9553 9.49433 87.023 8.54464C87.0502 8.04342 86.2234 7.76642 85.478 7.6609C84.0278 7.43667 82.6996 6.53974 82.6996 4.86459C82.6996 3.13668 84.3124 2.22656 85.9659 2.22656C87.0637 2.22656 88.1208 2.52994 89.056 3.62472L87.5652 4.74588C86.6165 3.76981 85.0036 3.79619 84.963 4.82502C84.9901 5.2471 85.4644 5.49772 86.1692 5.64281C87.782 5.93299 89.3813 6.47379 89.2864 8.63697C89.2051 10.3385 87.3754 11.275 85.7084 11.275C84.6241 11.275 83.4721 10.7342 82.6318 9.67899L84.0549 8.37317Z" fill="white"/>
<path d="M94.0989 8.60945H90.1143V6.49902H94.0989V8.60945Z" fill="white"/>
<path d="M97.6644 8.21482C97.6644 9.62617 100.24 9.62617 100.253 8.21482V2.3584H102.571V8.21482C102.557 12.3433 95.3468 12.3433 95.3604 8.21482V2.3584H97.678V8.21482H97.6644Z" fill="white"/>
<path d="M103.924 2.3584H107.543C109.752 2.3584 110.849 3.91484 110.849 5.47127C110.849 7.0409 109.738 8.58415 107.556 8.58415H106.214V11.1562H103.924V2.3584ZM107.529 6.60562C108.911 6.61881 108.911 4.41606 107.529 4.42925H106.201V6.60562H107.529Z" fill="white"/>
<path d="M32.2969 20.3671V14.8428H34.2662C35.1544 14.8428 35.888 15.1058 36.4479 15.632C37.0079 16.1581 37.2975 16.8157 37.2975 17.6049C37.2975 18.3941 37.0079 19.0518 36.4479 19.5779C35.888 20.104 35.1544 20.3671 34.2855 20.3671H32.2969ZM32.934 19.8034H34.2662C34.9806 19.8034 35.5405 19.5967 35.9846 19.1833C36.4093 18.7699 36.6217 18.2438 36.6217 17.6237C36.6217 17.0036 36.4093 16.4775 35.9653 16.0641C35.5405 15.6508 34.9613 15.4441 34.2662 15.4441H32.934V19.8034Z" fill="white"/>
<path d="M38.5508 15.3881V14.7305H39.2651V15.4069H38.5508V15.3881ZM38.5894 20.3675V16.2901H39.2072V20.3675H38.5894Z" fill="white"/>
<path d="M42.5295 21.6459C41.8152 21.6459 41.178 21.458 40.6181 21.0822L40.9077 20.6125C41.4097 20.9695 41.931 21.1386 42.5295 21.1386C42.9929 21.1386 43.379 21.0071 43.6493 20.7628C43.9196 20.5185 44.0548 20.1615 44.0548 19.6918V19.2032C43.6107 19.7857 43.0701 20.0676 42.4137 20.0676C41.8924 20.0676 41.429 19.8985 41.0236 19.5414C40.6374 19.1844 40.4443 18.7147 40.4443 18.151C40.4443 17.5685 40.6374 17.1175 41.0429 16.7605C41.429 16.4035 41.8924 16.2344 42.4137 16.2344C43.0894 16.2344 43.63 16.5162 44.0548 17.0611V16.3283H44.6726V19.7106C44.6726 20.3306 44.4989 20.8004 44.132 21.1574C43.7652 21.4768 43.2246 21.6459 42.5295 21.6459ZM42.5295 19.5227C42.935 19.5227 43.3018 19.3911 43.6107 19.1281C43.9196 18.865 44.0741 18.5268 44.0741 18.1322C44.0741 17.7376 43.9196 17.3994 43.6107 17.1363C43.3018 16.8732 42.935 16.7417 42.5295 16.7417C42.1241 16.7417 41.7765 16.8732 41.4869 17.1175C41.2166 17.3806 41.0622 17.7 41.0622 18.1322C41.0622 18.5268 41.1973 18.865 41.4869 19.1281C41.7765 19.3911 42.1241 19.5227 42.5295 19.5227Z" fill="white"/>
<path d="M46.0801 15.3881V14.7305H46.7945V15.4069H46.0801V15.3881ZM46.1187 20.3675V16.2901H46.7365V20.3675H46.1187Z" fill="white"/>
<path d="M49.5966 20.4436C49.2297 20.4436 48.9401 20.3496 48.7278 20.1617C48.5154 19.9738 48.3995 19.692 48.3995 19.2974V16.8359H47.8203V16.2909H48.3995V15.0508H49.0174V16.2909H50.3496V16.8359H49.0174V19.2222C49.0174 19.6732 49.2491 19.8987 49.7317 19.8987C49.9441 19.8987 50.1372 19.8423 50.3496 19.7483V20.2745C50.1372 20.3872 49.8669 20.4436 49.5966 20.4436Z" fill="white"/>
<path d="M52.724 20.4624C52.2993 20.4624 51.9324 20.3497 51.6235 20.1242C51.3146 19.8987 51.1602 19.5793 51.1602 19.1847C51.1602 18.7525 51.3146 18.4331 51.6428 18.1888C51.9711 17.9633 52.3958 17.8318 52.9557 17.8318C53.3805 17.8318 53.8246 17.8882 54.23 18.0009V17.8694C54.23 17.5123 54.1142 17.2305 53.9018 17.0426C53.6894 16.8547 53.3805 16.7607 52.975 16.7607C52.5696 16.7607 52.1448 16.8547 51.7008 17.0614L51.5077 16.5728C52.029 16.3474 52.531 16.2158 53.033 16.2158C53.6315 16.2158 54.0755 16.3661 54.3845 16.6668C54.6741 16.9486 54.8285 17.3432 54.8285 17.8694V20.3685H54.23V19.7672C53.8632 20.2369 53.3612 20.4624 52.724 20.4624ZM52.8399 19.9739C53.226 19.9739 53.5543 19.8799 53.8246 19.6732C54.0949 19.4665 54.23 19.2035 54.23 18.884V18.5082C53.8246 18.3955 53.4191 18.3391 53.0137 18.3391C52.6275 18.3391 52.3379 18.4143 52.1062 18.5646C51.8938 18.7149 51.778 18.9216 51.778 19.1847C51.778 19.4289 51.8745 19.6356 52.0869 19.786C52.2993 19.8987 52.5503 19.9739 52.8399 19.9739Z" fill="white"/>
<path d="M56.2383 20.3682V14.5996H56.8561V20.3682H56.2383Z" fill="white"/>
<path d="M61.9916 20.4624C61.5669 20.4624 61.2 20.3497 60.8911 20.1242C60.5822 19.8987 60.4277 19.5793 60.4277 19.1847C60.4277 18.7525 60.5822 18.4331 60.9104 18.1888C61.2386 17.9633 61.6634 17.8318 62.2233 17.8318C62.6481 17.8318 63.0921 17.8882 63.4976 18.0009V17.8694C63.4976 17.5123 63.3818 17.2305 63.1694 17.0426C62.957 16.8547 62.6481 16.7607 62.2426 16.7607C61.8372 16.7607 61.4124 16.8547 60.9683 17.0614L60.7753 16.5728C61.2966 16.3474 61.7986 16.2158 62.3005 16.2158C62.8991 16.2158 63.3431 16.3661 63.6521 16.6668C63.9417 16.9486 64.0961 17.3432 64.0961 17.8694V20.3685H63.4976V19.7672C63.1308 20.2369 62.6288 20.4624 61.9916 20.4624ZM62.1075 19.9739C62.4936 19.9739 62.8218 19.8799 63.0921 19.6732C63.3624 19.4665 63.4976 19.2035 63.4976 18.884V18.5082C63.0921 18.3955 62.6867 18.3391 62.2812 18.3391C61.8951 18.3391 61.6055 18.4143 61.3738 18.5646C61.1614 18.7149 61.0456 18.9216 61.0456 19.1847C61.0456 19.4289 61.1421 19.6356 61.3545 19.786C61.5669 19.8987 61.8179 19.9739 62.1075 19.9739Z" fill="white"/>
<path d="M67.301 21.6459C66.5866 21.6459 65.9495 21.458 65.3896 21.0822L65.6792 20.6125C66.1812 20.9695 66.7025 21.1386 67.301 21.1386C67.7644 21.1386 68.1505 21.0071 68.4208 20.7628C68.6911 20.5185 68.8263 20.1615 68.8263 19.6918V19.2032C68.3822 19.7857 67.8416 20.0676 67.1852 20.0676C66.6639 20.0676 66.2005 19.8985 65.795 19.5414C65.4089 19.1844 65.2158 18.7147 65.2158 18.151C65.2158 17.5685 65.4089 17.1175 65.8143 16.7605C66.2005 16.4035 66.6639 16.2344 67.1852 16.2344C67.8609 16.2344 68.4015 16.5162 68.8263 17.0611V16.3283H69.4441V19.7106C69.4441 20.3306 69.2704 20.8004 68.9035 21.1574C68.5367 21.4768 67.9961 21.6459 67.301 21.6459ZM67.301 19.5227C67.7065 19.5227 68.0733 19.3911 68.3822 19.1281C68.6911 18.865 68.8456 18.5268 68.8456 18.1322C68.8456 17.7376 68.6911 17.3994 68.3822 17.1363C68.0733 16.8732 67.7065 16.7417 67.301 16.7417C66.8956 16.7417 66.548 16.8732 66.2584 17.1175C65.9881 17.3806 65.8337 17.7 65.8337 18.1322C65.8337 18.5268 65.9688 18.865 66.2584 19.1281C66.548 19.3911 66.8956 19.5227 67.301 19.5227Z" fill="white"/>
<path d="M71.2006 18.5826C71.2392 18.996 71.413 19.3342 71.6833 19.5785C71.9536 19.8228 72.3011 19.9543 72.668 19.9543C73.17 19.9543 73.614 19.7664 74.0002 19.3718L74.3863 19.7101C73.9229 20.2174 73.3437 20.4805 72.6487 20.4805C72.0501 20.4805 71.5675 20.2738 71.162 19.8792C70.7566 19.4846 70.5635 18.9772 70.5635 18.3384C70.5635 17.7371 70.7565 17.2297 71.1427 16.8164C71.5288 16.403 72.0115 16.1963 72.5714 16.1963C73.17 16.1963 73.6526 16.403 74.0002 16.8164C74.3477 17.2297 74.5215 17.7371 74.5215 18.3572C74.5215 18.4323 74.5215 18.5075 74.5215 18.5639H71.2006V18.5826ZM71.2006 18.0941H73.9036C73.865 17.6995 73.7299 17.3801 73.4982 17.117C73.2665 16.8539 72.9576 16.7224 72.5521 16.7224C72.2046 16.7224 71.8957 16.8539 71.6254 17.117C71.3937 17.3613 71.2585 17.6807 71.2006 18.0941Z" fill="white"/>
<path d="M75.6406 20.3685V16.291H76.2585V17.005C76.5867 16.4789 77.0694 16.2158 77.6872 16.2158C78.1892 16.2158 78.5753 16.3661 78.8649 16.6668C79.1546 16.9674 79.2897 17.362 79.2897 17.8506V20.3685H78.6719V17.9821C78.6719 17.6063 78.5753 17.3057 78.363 17.0802C78.1506 16.8547 77.8803 16.7607 77.5134 16.7607C77.1466 16.7607 76.857 16.8735 76.606 17.1177C76.3743 17.362 76.2392 17.6627 76.2392 18.0385V20.3685H75.6406Z" fill="white"/>
<path d="M82.5357 20.4624C81.9372 20.4624 81.4159 20.2557 81.0104 19.8423C80.605 19.4289 80.3926 18.9216 80.3926 18.3391C80.3926 17.7566 80.605 17.2493 81.0104 16.8359C81.4159 16.4225 81.9372 16.2158 82.5357 16.2158C83.1921 16.2158 83.7521 16.4601 84.2154 16.9486L83.81 17.362C83.4238 16.9674 82.9991 16.7607 82.5164 16.7607C82.0916 16.7607 81.7441 16.9111 81.4545 17.2305C81.1649 17.5311 81.0297 17.9257 81.0297 18.3579C81.0297 18.8089 81.1842 19.1847 81.4738 19.4853C81.7634 19.786 82.1302 19.9551 82.5743 19.9551C83.0184 19.9551 83.4431 19.7484 83.8486 19.335L84.254 19.7108C83.7521 20.1993 83.1921 20.4624 82.5357 20.4624Z" fill="white"/>
<path d="M85.931 21.6643C85.6221 21.6643 85.3325 21.5891 85.0429 21.4576L85.2553 20.969C85.4484 21.063 85.68 21.1194 85.9117 21.1194C86.1048 21.1194 86.2593 21.063 86.3944 20.9503C86.5296 20.8375 86.6454 20.6308 86.7806 20.349L84.8691 16.2715H85.5642L87.0895 19.6725L88.441 16.2715H89.0974L87.3405 20.4993C87.1667 20.9127 86.9736 21.2133 86.7419 21.3824C86.5103 21.5703 86.24 21.6643 85.931 21.6643Z" fill="white"/>
<defs>
<linearGradient id="paint0_linear_217_1506" x1="0.404649" y1="10.5453" x2="11.401" y2="-0.668755" gradientUnits="userSpaceOnUse">
<stop stop-color="#CE2000"/>
<stop offset="0.6128" stop-color="#A61A00"/>
<stop offset="1" stop-color="#DD1500"/>
</linearGradient>
<linearGradient id="paint1_linear_217_1506" x1="0.391367" y1="17.0886" x2="16.4563" y2="0.705754" gradientUnits="userSpaceOnUse">
<stop stop-color="#CE2000"/>
<stop offset="0.6128" stop-color="#A61A00"/>
<stop offset="1" stop-color="#DD1500"/>
</linearGradient>
<linearGradient id="paint2_linear_217_1506" x1="4.42894" y1="20.6249" x2="20.9724" y2="3.75402" gradientUnits="userSpaceOnUse">
<stop stop-color="#CE2000"/>
<stop offset="0.6128" stop-color="#A61A00"/>
<stop offset="1" stop-color="#DD1500"/>
</linearGradient>
<linearGradient id="paint3_linear_217_1506" x1="8.77305" y1="23.1203" x2="24.6441" y2="6.9352" gradientUnits="userSpaceOnUse">
<stop stop-color="#CE2000"/>
<stop offset="0.6128" stop-color="#A61A00"/>
<stop offset="1" stop-color="#DD1500"/>
</linearGradient>
<linearGradient id="paint4_linear_217_1506" x1="14.5752" y1="25.0255" x2="25.5716" y2="13.8115" gradientUnits="userSpaceOnUse">
<stop stop-color="#CE2000"/>
<stop offset="0.6128" stop-color="#A61A00"/>
<stop offset="1" stop-color="#DD1500"/>
</linearGradient>
</defs>
</svg>
