<svg width="19" height="19" viewBox="0 0 19 19" fill="none" xmlns="http://www.w3.org/2000/svg">
<g clip-path="url(#clip0_217_1155)">
<path d="M17.1992 4.21801L8.64172 12.783L5.46172 9.60301L6.51922 8.54551L8.64172 10.668L16.1417 3.16801L17.1992 4.21801ZM15.5417 7.99801C15.6392 8.42551 15.6992 8.87551 15.6992 9.33301C15.6992 12.648 13.0142 15.333 9.69922 15.333C6.38422 15.333 3.69922 12.648 3.69922 9.33301C3.69922 6.01801 6.38422 3.33301 9.69922 3.33301C10.8842 3.33301 11.9792 3.67801 12.9092 4.27051L13.9892 3.19051C12.7742 2.33551 11.2967 1.83301 9.69922 1.83301C5.55922 1.83301 2.19922 5.19301 2.19922 9.33301C2.19922 13.473 5.55922 16.833 9.69922 16.833C13.8392 16.833 17.1992 13.473 17.1992 9.33301C17.1992 8.44051 17.0342 7.58551 16.7492 6.79051L15.5417 7.99801Z" fill="#0D90C6"/>
</g>
<defs>
<clipPath id="clip0_217_1155">
<rect width="18" height="18" fill="white" transform="translate(0.699219 0.333008)"/>
</clipPath>
</defs>
</svg>
