<svg width="174" height="175" viewBox="0 0 174 175" fill="none" xmlns="http://www.w3.org/2000/svg">
<rect x="7" y="8" width="160" height="160" rx="80" fill="#161617"/>
<g opacity="0.3">
<circle cx="86.063" cy="2.36475" r="1.5" fill="#161617"/>
<circle cx="74.1329" cy="3.26351" r="1.5" transform="rotate(-7.99152 74.1329 3.26351)" fill="#161617"/>
<circle cx="146.899" cy="27.1756" r="1.5" transform="rotate(45 146.899 27.1756)" fill="#161617"/>
<circle cx="137.828" cy="19.3756" r="1.5" transform="rotate(37.0085 137.828 19.3756)" fill="#161617"/>
<circle cx="169.569" cy="109.971" r="1.5" transform="rotate(105 169.569 109.971)" fill="#161617"/>
<circle cx="171.788" cy="98.2148" r="1.5" transform="rotate(97.0085 171.788 98.2148)" fill="#161617"/>
<circle cx="109.2" cy="171.001" r="1.5" transform="rotate(165 109.2 171.001)" fill="#161617"/>
<circle cx="120.492" cy="167.045" r="1.5" transform="rotate(157.008 120.492 167.045)" fill="#161617"/>
<circle cx="12.4245" cy="131.532" r="1.5" transform="rotate(-120 12.4245 131.532)" fill="#161617"/>
<circle cx="19.1676" cy="141.414" r="1.5" transform="rotate(-127.992 19.1676 141.414)" fill="#161617"/>
<circle cx="11.9562" cy="45.6907" r="1.5" transform="rotate(-60 11.9562 45.6907)" fill="#161617"/>
<circle cx="6.76944" cy="56.4716" r="1.5" transform="rotate(-67.9915 6.76944 56.4716)" fill="#161617"/>
<circle cx="172.373" cy="87.7373" r="1.5" transform="rotate(90 172.373 87.7373)" fill="#161617"/>
<circle cx="171.474" cy="75.8076" r="1.5" transform="rotate(82.0085 171.474 75.8076)" fill="#161617"/>
<circle cx="147.562" cy="148.574" r="1.5" transform="rotate(135 147.562 148.574)" fill="#161617"/>
<circle cx="155.362" cy="139.502" r="1.5" transform="rotate(127.008 155.362 139.502)" fill="#161617"/>
<circle cx="64.7669" cy="171.244" r="1.5" transform="rotate(-165 64.7669 171.244)" fill="#161617"/>
<circle cx="76.5227" cy="173.463" r="1.5" transform="rotate(-172.992 76.5227 173.463)" fill="#161617"/>
<circle cx="3.73589" cy="110.876" r="1.5" transform="rotate(-105 3.73589 110.876)" fill="#161617"/>
<circle cx="7.69176" cy="122.167" r="1.5" transform="rotate(-112.992 7.69176 122.167)" fill="#161617"/>
<circle cx="43.204" cy="14.0993" r="1.5" transform="rotate(-30 43.204 14.0993)" fill="#161617"/>
<circle cx="33.3222" cy="20.8426" r="1.5" transform="rotate(-37.9915 33.3222 20.8426)" fill="#161617"/>
<circle cx="129.046" cy="13.63" r="1.5" transform="rotate(30 129.046 13.63)" fill="#161617"/>
<circle cx="118.265" cy="8.44359" r="1.5" transform="rotate(22.0085 118.265 8.44359)" fill="#161617"/>
<circle cx="86.063" cy="173.11" r="1.5" fill="#161617"/>
<circle cx="97.8713" cy="172.35" r="1.5" transform="rotate(-7.99152 97.8713 172.35)" fill="#161617"/>
<circle cx="26.1643" cy="147.911" r="1.5" transform="rotate(45 26.1643 147.911)" fill="#161617"/>
<circle cx="35.0508" cy="155.723" r="1.5" transform="rotate(37.0085 35.0508 155.723)" fill="#161617"/>
<circle cx="4.64225" cy="65.7789" r="1.5" transform="rotate(105 4.64225 65.7789)" fill="#161617"/>
<circle cx="2.31947" cy="77.3815" r="1.5" transform="rotate(97.0085 2.31947 77.3815)" fill="#161617"/>
<circle cx="63.8333" cy="5.70191" r="1.5" transform="rotate(165 63.8333 5.70191)" fill="#161617"/>
<circle cx="53.7997" cy="9.86434" r="1.5" transform="rotate(157.008 53.7997 9.86434)" fill="#161617"/>
<circle cx="160.293" cy="46.1598" r="1.5" transform="rotate(-120 160.293 46.1598)" fill="#161617"/>
<circle cx="153.731" cy="36.3134" r="1.5" transform="rotate(-127.992 153.731 36.3134)" fill="#161617"/>
<circle cx="159.825" cy="131.063" r="1.5" transform="rotate(-60 159.825 131.063)" fill="#161617"/>
<circle cx="165.072" cy="120.457" r="1.5" transform="rotate(-67.9915 165.072 120.457)" fill="#161617"/>
<circle cx="1.62793" cy="87.7373" r="1.5" transform="rotate(90 1.62793 87.7373)" fill="#161617"/>
<circle cx="2.38726" cy="99.5457" r="1.5" transform="rotate(82.0085 2.38726 99.5457)" fill="#161617"/>
<circle cx="26.8271" cy="27.8385" r="1.5" transform="rotate(135 26.8271 27.8385)" fill="#161617"/>
<circle cx="19.0141" cy="36.7254" r="1.5" transform="rotate(127.008 19.0141 36.7254)" fill="#161617"/>
<circle cx="109.672" cy="5.70191" r="1.5" transform="rotate(-165 109.672 5.70191)" fill="#161617"/>
<circle cx="98.681" cy="3.24139" r="1.5" transform="rotate(-172.992 98.681 3.24139)" fill="#161617"/>
<circle cx="168.663" cy="66.6843" r="1.5" transform="rotate(-105 168.663 66.6843)" fill="#161617"/>
<circle cx="164.873" cy="55.4748" r="1.5" transform="rotate(-112.992 164.873 55.4748)" fill="#161617"/>
<circle cx="128.577" cy="161.969" r="1.5" transform="rotate(-30 128.577 161.969)" fill="#161617"/>
<circle cx="138.423" cy="155.407" r="1.5" transform="rotate(-37.9915 138.423 155.407)" fill="#161617"/>
<circle cx="43.6733" cy="161.5" r="1.5" transform="rotate(30 43.6733 161.5)" fill="#161617"/>
<circle cx="54.2795" cy="166.747" r="1.5" transform="rotate(22.0085 54.2795 166.747)" fill="#161617"/>
</g>
</svg>
